<?xml version="1.0" encoding="UTF-8" standalone="no"?>
<!DOCTYPE svg PUBLIC "-//W3C//DTD SVG 1.1//EN" "http://www.w3.org/Graphics/SVG/1.1/DTD/svg11.dtd">
<svg width="100%" height="100%" viewBox="0 0 477 426" version="1.1" xmlns="http://www.w3.org/2000/svg" xmlns:xlink="http://www.w3.org/1999/xlink" xml:space="preserve" xmlns:serif="http://www.serif.com/" style="fill-rule:evenodd;clip-rule:evenodd;stroke-linejoin:round;stroke-miterlimit:2;">
    <g transform="matrix(5.89381e-17,0.962532,-0.962532,5.89381e-17,478.926,-28.7598)">
        <path d="M47.575,373.809C47.733,373.913 47.893,374.014 48.056,374.109L238.616,485.709C238.784,485.808 238.955,485.901 239.129,485.989C245.083,489.024 252.138,489.06 258.122,486.084C258.294,485.999 258.464,485.908 258.631,485.813L454.091,374.143C454.265,374.043 454.435,373.939 454.603,373.829C460.219,370.157 463.756,364.016 464.116,357.315C464.125,357.137 464.13,356.959 464.13,356.78L464.13,138.91C464.13,138.72 464.125,138.53 464.114,138.34C463.724,131.514 460.036,125.288 454.235,121.667C454.079,121.57 453.92,121.477 453.759,121.388L258.359,13.918C258.192,13.826 258.021,13.738 257.849,13.656C252.017,10.872 245.221,10.907 239.419,13.751C239.247,13.835 239.077,13.924 238.91,14.018L48.35,121.418C48.187,121.51 48.027,121.606 47.87,121.707C42.173,125.353 38.566,131.526 38.186,138.278C38.175,138.465 38.17,138.653 38.17,138.84L38.17,356.84C38.17,357.022 38.175,357.203 38.185,357.385C38.547,364.03 42.033,370.126 47.575,373.809Z" style="fill:rgb(236,236,236);"/>
    </g>
    <g id="inner" transform="matrix(6.12323e-17,1,-1,6.12323e-17,492.805,-37.9144)">
        <path d="M231.39,137.35L146.88,295.58C138.24,311.76 146.18,325 164.52,325L337.14,325C355.85,325 363.72,311.62 354.61,295.27L266.51,137C256.69,119.42 240.89,119.56 231.39,137.35Z" style="fill:rgb(250,82,82);fill-rule:nonzero;"/>
    </g>
    <g transform="matrix(6.12323e-17,1,-1,6.12323e-17,476.699,-1.06581e-14)">
        <path d="M185.575,10.974L51.068,86.778C50.801,86.928 50.537,87.079 50.275,87.229L10.18,109.827C10.017,109.918 9.857,110.015 9.7,110.115C4.003,113.761 0.396,119.934 0.016,126.686C0.005,126.873 0,127.061 0,127.248L0,345.248C0,345.43 0.005,345.612 0.015,345.793C0.377,352.438 3.863,358.534 9.405,362.217C9.563,362.322 9.723,362.422 9.886,362.517L21.528,369.335L21.617,369.387L27.43,372.792L200.446,474.117C200.614,474.216 200.785,474.309 200.959,474.398C206.913,477.432 213.968,477.468 219.952,474.493C220.124,474.407 220.294,474.316 220.461,474.221L259.106,452.142C259.487,451.93 259.872,451.713 260.261,451.491L300.886,428.273L415.921,362.551C416.095,362.452 416.265,362.347 416.433,362.238C422.049,358.565 425.586,352.424 425.946,345.724C425.955,345.545 425.96,345.367 425.96,345.188L425.96,127.318C425.96,127.128 425.955,126.938 425.944,126.749C425.554,119.922 421.866,113.696 416.065,110.075C415.909,109.978 415.75,109.885 415.589,109.796L375.634,87.821C374.989,87.451 374.328,87.08 373.65,86.706L230.133,7.792L229.876,7.654L220.189,2.326C220.022,2.234 219.851,2.146 219.679,2.064C213.847,-0.72 207.051,-0.685 201.249,2.159C201.077,2.243 200.907,2.332 200.74,2.427L185.575,10.974ZM113.135,323.408L128.004,343.03L210.662,452.071L210.664,452.068L312.344,323.408L113.135,323.408ZM96.862,335.049L90.044,326.051C89.917,325.935 89.738,325.89 89.571,325.932L89.568,325.933L88.869,326.25C88.654,326.358 88.436,326.463 88.216,326.565C88.198,326.573 88.181,326.581 88.163,326.589L31.728,352.131L38.92,356.343L172.093,434.325L110.357,352.857L97.163,335.452C97.061,335.317 96.96,335.182 96.862,335.049ZM337.307,326.342L336.279,325.877L336.276,325.876C336.107,325.833 335.927,325.877 335.795,325.993L250.35,434.111L292.66,409.938L393.988,352.026L393.989,352.025L392.579,351.386L337.824,326.588C337.805,326.579 337.785,326.57 337.766,326.561C337.611,326.489 337.458,326.416 337.307,326.342ZM405.96,169.861L405.96,335.489L405.96,335.491L405.957,335.489L400.822,333.164L346.109,308.373C346.1,308.36 346.097,308.343 346.101,308.327L405.96,169.861ZM20,169.745L20.001,335.486L23.002,334.128C23.157,334.054 23.313,333.982 23.47,333.911L79.895,308.359C79.899,308.346 79.9,308.332 79.896,308.318L75.882,299.031C75.783,298.814 75.686,298.596 75.59,298.374L63.149,269.573L20.003,169.75L20,169.745ZM218.998,129.221L296.232,267.935L307.704,288.546C310.128,292.896 311.202,296.74 309.517,299.607C307.831,302.475 303.949,303.408 298.97,303.408L126.35,303.408C121.491,303.408 117.683,302.449 115.989,299.623C114.441,297.042 115.097,293.639 116.967,289.802L202.668,129.332C205.055,125.137 207.585,122.35 210.756,122.319C213.939,122.288 216.527,125.05 218.998,129.221ZM245.852,108.318L228.97,106.018L236.436,119.428C236.65,119.79 236.861,120.158 237.07,120.532C237.073,120.536 237.075,120.54 237.078,120.545L313.702,258.198L331.867,290.823L331.868,290.826L331.872,290.818C331.872,290.818 401.587,129.55 401.587,129.55L401.591,129.537L401.588,129.536L245.852,108.318ZM185.054,119.859L192.412,106.08L192.436,106.031L192.423,106.032L24.426,129.492L24.429,129.501L81.508,261.639L93.955,290.436L99.224,280.57C99.436,280.141 99.658,279.71 99.889,279.278L184.399,121.047L184.399,121.048C184.614,120.645 184.832,120.249 185.054,119.859ZM220.5,25.323L363.953,104.222L248.448,88.487L231.655,86.199L231.582,86.189L220.726,84.711C220.607,84.674 220.521,84.576 220.501,84.457L220.5,25.323ZM60.892,104.204L196.96,27.515L200.484,25.529L200.5,25.521L200.5,84.478C200.48,84.599 200.394,84.698 200.28,84.734L60.892,104.204Z" style="fill:rgb(51,51,51);"/>
    </g>
</svg>
